Coordinates
version=1
nRows=7
nColumns=40
inDegrees=yes

Units are S.I. units (second, meters, Newtons, ...)
Angles are in degrees.

endheader
time	pelvis_tilt	pelvis_list	pelvis_rotation	pelvis_tx	pelvis_ty	pelvis_tz	hip_flexion_r	hip_adduction_r	hip_rotation_r	knee_angle_r	knee_angle_r_beta	ankle_angle_r	subtalar_angle_r	mtp_angle_r	hip_flexion_l	hip_adduction_l	hip_rotation_l	knee_angle_l	knee_angle_l_beta	ankle_angle_l	subtalar_angle_l	mtp_angle_l	lumbar_extension	lumbar_bending	lumbar_rotation	arm_flex_r	arm_add_r	arm_rot_r	elbow_flex_r	pro_sup_r	wrist_flex_r	wrist_dev_r	arm_flex_l	arm_add_l	arm_rot_l	elbow_flex_l	pro_sup_l	wrist_flex_l	wrist_dev_l
     15.95250000	     -3.63779543	     -6.47915480	     -1.88488503	      0.78982588	      0.92305043	      0.47124121	     19.10663189	      3.18794465	    -12.86945776	     18.43117440	     18.43117440	      4.44272924	     -2.74867778	     -5.92378798	      8.57660771	    -10.20660608	     -2.88112765	     43.63610607	     43.63610607	     11.80873139	    -14.92907473	    -11.45124909	     -9.44853879	      9.54678178	      1.89616532	      3.90614209	    -11.89462602	    -15.49804692	     27.98860717	     45.83288546	      0.00000000	      0.00000000	      9.86970895	    -11.76017677	    -10.98350766	     55.85529433	     46.20241769	      0.00000000	      0.00000000
     15.96514286	     -3.54296952	     -6.58415291	     -1.52662089	      0.79004408	      0.92384248	      0.47274840	     18.36943117	      3.37271392	    -13.13085891	     18.11849112	     18.11849112	      4.76507204	     -2.69335045	     -6.01985951	     10.61939831	    -10.65989257	     -2.01825852	     47.67734918	     47.67734918	      9.62820411	    -15.49406686	    -11.50408901	     -9.60006738	      9.60185875	      1.84461773	      5.77476267	    -12.02296777	    -15.35681982	     28.89076451	     45.80561204	      0.00000000	      0.00000000	      9.01260593	    -11.34252752	    -10.59922255	     54.50059745	     46.15334698	      0.00000000	      0.00000000
     15.97778571	     -3.47717320	     -6.67245351	     -1.20071331	      0.79011149	      0.92447678	      0.47426936	     17.68633062	      3.54892314	    -13.37101425	     17.82690687	     17.82690687	      5.07085830	     -2.62847737	     -6.12967056	     12.71529641	    -11.02549021	     -1.07895316	     51.55101461	     51.55101461	      7.45201522	    -15.92963173	    -11.19664480	     -9.71010827	      9.60559119	      1.77567681	      7.67987205	    -12.14289038	    -15.14780084	     29.84412309	     45.77136073	      0.00000000	      0.00000000	      8.20466101	    -10.96476542	    -10.17213103	     52.89559036	     46.09787518	      0.00000000	      0.00000000
     15.99042857	     -3.44342965	     -6.75099532	     -0.90098110	      0.79001461	      0.92498063	      0.47577791	     17.07131822	      3.72215959	    -13.58988164	     17.57230823	     17.57230823	      5.37937106	     -2.56236828	     -6.25191933	     14.83108441	    -11.30015596	     -0.08959076	     55.15568731	     55.15568731	      5.48117046	    -16.21856051	    -10.41165358	     -9.80029231	      9.54047931	      1.69257661	      9.58310195	    -12.25179618	    -14.85887674	     30.85840033	     45.72917538	      0.00000000	      0.00000000	      7.44590130	    -10.62204805	     -9.70046392	     51.05831190	     46.03640169	      0.00000000	      0.00000000
     16.00307143	     -3.38868533	     -6.67491553	     -0.61131509	      0.78972521	      0.92553566	      0.47702535	     16.52352151	      3.68260445	    -13.79750266	     17.47029387	     17.47029387	      5.60822221	     -2.45014453	     -6.55534800	     16.97847545	    -11.23956286	      0.94920280	     58.65397697	     58.65397697	      5.08773413	    -15.81210580	     -5.93634523	     -9.84675926	      9.38744052	      1.78243156	     11.19305481	    -12.60763921	    -13.10299814	     32.50804045	     45.58450482	      0.00000000	      0.00000000	      7.95802630	    -10.33325693	     -8.37770186	     45.97336493	     45.90502950	      0.00000000	      0.00000000
     16.01571429	     -3.41145287	     -6.79328252	     -0.39964638	      0.78933991	      0.92585420	      0.47854598	     15.98701763	      3.92520586	    -13.96060410	     17.20786038	     17.20786038	      5.89014792	     -2.39602697	     -6.58289500	     19.02183308	    -11.49721560	      1.78779343	     61.43908695	     61.43908695	      3.67705991	    -15.91026973	     -5.08784339	     -9.93097274	      9.29571813	      2.07769223	     12.93138056	    -12.87560347	    -12.90340418	     33.56306779	     45.54650165	      0.00000000	      0.00000000	      7.12643055	     -9.83386018	     -8.04627360	     45.02045799	     45.86053807	      0.00000000	      0.00000000
     16.02835714	     -3.39612184	     -6.70041455	     -0.14619437	      0.78876838	      0.92628352	      0.47970520	     15.51888472	      3.88028313	    -14.10690962	     17.14513628	     17.14513628	      6.24848680	     -2.31931802	     -6.56837501	     21.09923305	    -11.33095169	      2.68959167	     64.07274295	     64.07274295	      4.50133571	    -15.28844217	      0.72216949	    -10.01989314	      9.04540571	      2.12100611	     14.22671948	    -13.30914007	    -10.90421593	     36.19953169	     45.36197133	      0.00000000	      0.00000000	      7.28269889	     -9.57759758	     -6.81806231	     40.89518191	     45.74468434	      0.00000000	      0.00000000
